<svg xmlns="http://www.w3.org/2000/svg" xmlns:xlink="http://www.w3.org/1999/xlink" width="152" height="103" viewBox="0 0 152 103">
  <defs>
    <clipPath id="clip-path">
      <rect id="Rectangle_2548" data-name="Rectangle 2548" width="66.875" height="66.833" fill="none"/>
    </clipPath>
  </defs>
  <g id="Group_5472" data-name="Group 5472" transform="translate(-55)">
    <rect id="Rectangle_2549" data-name="Rectangle 2549" width="152" height="103" transform="translate(55)" fill="#fff" opacity="0"/>
    <g id="Group_5470" data-name="Group 5470" transform="translate(98 18.084)">
      <path id="Path_6921" data-name="Path 6921" d="M55.824,25.031l-.1,11.342-.039,3.914-1.631-.009-1.142-.01-1.142-.02-1.64-.01.039-3.924.1-11.332,2.782.029Z" transform="translate(-19.459 -9.697)" fill="#368d35"/>
      <path id="Path_6922" data-name="Path 6922" d="M45.4,41.179l1.132,1.162-1.142-.01-1.142-.02L42.6,42.3l-3.924-.039L30.735,34.18l1.981-1.943L34.7,30.3l7.946,8.081Z" transform="translate(-11.929 -11.759)" fill="#368d35"/>
      <path id="Path_6923" data-name="Path 6923" d="M70.976,64.706l-1.982,1.942-1.981,1.943-7.945-8.082.039-3.924.01-1.63.01-1.142.02-1.152,1.132,1.152v.01l2.753,2.8Z" transform="translate(-22.926 -20.44)" fill="#368d35"/>
      <path id="Path_6924" data-name="Path 6924" d="M45.978,49.879l-.01,1.63-.02,1.152-.01,1.142-.01,1.63-.039,3.924-.1,11.333-2.782-.03-2.772-.019.1-11.343-8.082,7.946-1.942-1.971L28.37,63.291l8.082-7.945-11.332-.1.029-2.782.019-2.772,11.333.1,3.924.039,1.64.01,1.142.02,1.142.01Z" transform="translate(-9.75 -19.288)" fill="#fff"/>
      <path id="Path_6925" data-name="Path 6925" d="M74.436,50.134l-.029,2.782-.02,2.772-11.332-.1-3.924-.039.01-1.63.01-1.142.02-1.152L59.18,50l3.924.039Z" transform="translate(-22.951 -19.406)" fill="#368d35"/>
      <path id="Path_6926" data-name="Path 6926" d="M68.734,34.567l-8.082,7.946-2.8,2.743v.01h-.01L56.689,46.4l.009-1.142.02-1.152.01-1.63-1.63-.01-1.142-.01-1.142-.02L53.965,41.3l2.8-2.742,8.082-7.946,1.943,1.971Z" transform="translate(-20.499 -11.883)" fill="#368d35"/>
      <rect id="Rectangle_2547" data-name="Rectangle 2547" width="1.198" height="5.447" transform="translate(11.525 7.486) rotate(-38.236)" fill="#fff"/>
      <path id="Path_6927" data-name="Path 6927" d="M28.945,4.108,31.6,7.038l.013-.006-.384-3.917,1.547-.671,2.167,5-1.029.446L32.383,4.347l-.015.007.31,4.072-.847.367L29.087,5.817l-.013.006,1.52,3.507-1.029.446-2.167-5Z" transform="translate(-10.634 -0.949)" fill="#fff"/>
      <g id="Group_5469" data-name="Group 5469" transform="translate(0 0)">
        <g id="Group_5468" data-name="Group 5468" clip-path="url(#clip-path)">
          <path id="Path_6928" data-name="Path 6928" d="M47.232.016a2.243,2.243,0,0,1,.88.06,1.626,1.626,0,0,1,.621.331,1.507,1.507,0,0,1,.382.521,2.04,2.04,0,0,1,.168.634,2.074,2.074,0,0,1-.037.652,1.5,1.5,0,0,1-.269.59,1.6,1.6,0,0,1-.541.45,2.245,2.245,0,0,1-.849.236l-1.252.128.2,1.942-1.191.122L44.788.265ZM47.165,2.6a2.465,2.465,0,0,0,.392-.071.932.932,0,0,0,.322-.152.65.65,0,0,0,.207-.27.881.881,0,0,0,.045-.426A.869.869,0,0,0,48,1.272a.64.64,0,0,0-.256-.223A.918.918,0,0,0,47.4.965a2.428,2.428,0,0,0-.4.01l-.926.094.165,1.624Z" transform="translate(-17.384 0)" fill="#fff"/>
          <path id="Path_6929" data-name="Path 6929" d="M60.68.554l1.146,5.7-1.228-.2-.214-1.263-2.011-.323L57.758,5.6l-1.19-.191,2.9-5.051Zm-.463,3.31-.36-2.083-.015,0L58.823,3.639Z" transform="translate(-21.956 -0.139)" fill="#fff"/>
          <path id="Path_6930" data-name="Path 6930" d="M75.352,6.816A1.225,1.225,0,0,0,75,6.091a1.247,1.247,0,0,0-.351-.248,1.4,1.4,0,0,0-.687-.155,1.3,1.3,0,0,0-.594.182,1.841,1.841,0,0,0-.489.431,2.973,2.973,0,0,0-.371.592,2.812,2.812,0,0,0-.215.637,1.8,1.8,0,0,0-.021.636,1.322,1.322,0,0,0,.234.573,1.4,1.4,0,0,0,.553.437,1.105,1.105,0,0,0,.919.067,1.554,1.554,0,0,0,.722-.636l1.046.5a2.775,2.775,0,0,1-.611.731,2.23,2.23,0,0,1-.757.417,2.14,2.14,0,0,1-.851.083,2.686,2.686,0,0,1-.9-.26,2.793,2.793,0,0,1-.922-.681,2.4,2.4,0,0,1-.5-.9,2.63,2.63,0,0,1-.089-1.036,3.277,3.277,0,0,1,.313-1.08,3.384,3.384,0,0,1,.653-.943,2.709,2.709,0,0,1,.869-.6,2.4,2.4,0,0,1,1.024-.188,2.754,2.754,0,0,1,1.111.285,2.791,2.791,0,0,1,.711.483,2.314,2.314,0,0,1,.485.65,2.054,2.054,0,0,1,.207.779,2.212,2.212,0,0,1-.128.869l-1.047-.5a.991.991,0,0,0,.039-.4" transform="translate(-27.597 -1.804)" fill="#fff"/>
          <path id="Path_6931" data-name="Path 6931" d="M85.115,11.976l.669-.753,3.338,2.963-.669.753-1.221-1.084-2.947,3.321-.9-.795,2.948-3.321Z" transform="translate(-32.366 -4.356)" fill="#fff"/>
          <path id="Path_6932" data-name="Path 6932" d="M10.191,75.751l-.895.462-1.32-2.555-1.037.535,1.211,2.346-.827.427L6.113,74.62l-1.186.613,1.347,2.61L5.38,78.3l-1.9-3.674,4.84-2.5Z" transform="translate(-1.352 -27.997)" fill="#fff"/>
          <path id="Path_6933" data-name="Path 6933" d="M16.874,86.657a1.239,1.239,0,0,0-.058-.8,1.247,1.247,0,0,0-.234-.36A1.405,1.405,0,0,0,16,85.1a1.29,1.29,0,0,0-.619-.05,1.839,1.839,0,0,0-.613.219,2.986,2.986,0,0,0-.564.413,2.781,2.781,0,0,0-.436.512,1.8,1.8,0,0,0-.254.584,1.288,1.288,0,0,0,.006.618,1.4,1.4,0,0,0,.351.611,1.106,1.106,0,0,0,.83.4,1.55,1.55,0,0,0,.906-.324l.788.85a2.75,2.75,0,0,1-.838.453,2.224,2.224,0,0,1-.857.108,2.128,2.128,0,0,1-.822-.237,2.687,2.687,0,0,1-.739-.573,2.792,2.792,0,0,1-.6-.973,2.414,2.414,0,0,1-.134-1.026,2.658,2.658,0,0,1,.3-.995,3.276,3.276,0,0,1,.69-.888,3.4,3.4,0,0,1,.955-.636,2.73,2.73,0,0,1,1.027-.233,2.415,2.415,0,0,1,1.021.2,2.766,2.766,0,0,1,.926.675,2.729,2.729,0,0,1,.483.712,2.313,2.313,0,0,1,.21.783,2.045,2.045,0,0,1-.1.8,2.212,2.212,0,0,1-.44.761l-.788-.852a.974.974,0,0,0,.184-.357" transform="translate(-4.809 -32.576)" fill="#fff"/>
          <path id="Path_6934" data-name="Path 6934" d="M24.954,93.558a2.737,2.737,0,0,1,.917-.516,2.42,2.42,0,0,1,1.036-.095,2.977,2.977,0,0,1,1.94,1.148,2.415,2.415,0,0,1,.411.953,2.727,2.727,0,0,1-.011,1.053,3.407,3.407,0,0,1-.42,1.068,3.291,3.291,0,0,1-.723.862,2.659,2.659,0,0,1-.91.5,2.416,2.416,0,0,1-1.028.087,3.031,3.031,0,0,1-1.94-1.148,2.416,2.416,0,0,1-.42-.945,2.643,2.643,0,0,1,0-1.04,3.288,3.288,0,0,1,.408-1.048,3.418,3.418,0,0,1,.735-.882m.024,2.107a1.783,1.783,0,0,0-.077.633,1.3,1.3,0,0,0,.182.59,1.583,1.583,0,0,0,1.181.7,1.317,1.317,0,0,0,.606-.125,1.808,1.808,0,0,0,.518-.373,2.743,2.743,0,0,0,.409-.533,3.011,3.011,0,0,0,.285-.639,1.846,1.846,0,0,0,.085-.645,1.3,1.3,0,0,0-.18-.595,1.581,1.581,0,0,0-1.182-.7,1.282,1.282,0,0,0-.607.128,1.841,1.841,0,0,0-.525.384,3.015,3.015,0,0,0-.423.557,2.814,2.814,0,0,0-.271.616" transform="translate(-9.221 -36.069)" fill="#fff"/>
          <path id="Path_6935" data-name="Path 6935" d="M38.388,102.3a.86.86,0,0,0,.176.366,1.116,1.116,0,0,0,.327.269,1.841,1.841,0,0,0,.428.173,2.353,2.353,0,0,0,.338.062,1.17,1.17,0,0,0,.359-.011.758.758,0,0,0,.311-.135.535.535,0,0,0,.191-.3.477.477,0,0,0-.046-.382,1.115,1.115,0,0,0-.3-.316,3.61,3.61,0,0,0-.461-.288q-.262-.141-.528-.3a5.4,5.4,0,0,1-.527-.333,2.061,2.061,0,0,1-.429-.41,1.367,1.367,0,0,1-.245-.519,1.352,1.352,0,0,1,.027-.652,1.424,1.424,0,0,1,.361-.658,1.588,1.588,0,0,1,.584-.378,2.041,2.041,0,0,1,.713-.127,2.83,2.83,0,0,1,.734.092,3.5,3.5,0,0,1,.768.3,2.042,2.042,0,0,1,.6.477,1.587,1.587,0,0,1,.329.652,1.674,1.674,0,0,1-.034.824l-1.121-.3a.952.952,0,0,0,0-.417.684.684,0,0,0-.16-.3,1,1,0,0,0-.288-.21,2.031,2.031,0,0,0-.385-.142,1.4,1.4,0,0,0-.288-.045.789.789,0,0,0-.282.036.64.64,0,0,0-.236.135.5.5,0,0,0-.149.26.478.478,0,0,0-.007.267.549.549,0,0,0,.185.238,3.113,3.113,0,0,0,.436.289q.285.162.746.419c.092.045.22.117.381.215a2,2,0,0,1,.455.385,1.637,1.637,0,0,1,.327.572,1.341,1.341,0,0,1,0,.775,1.655,1.655,0,0,1-.318.635,1.529,1.529,0,0,1-.558.425,2.084,2.084,0,0,1-.78.168,3.355,3.355,0,0,1-.981-.126,3.455,3.455,0,0,1-.816-.331,2.206,2.206,0,0,1-.633-.527,1.7,1.7,0,0,1-.343-.715,1.794,1.794,0,0,1,.045-.888l1.121.3a.991.991,0,0,0-.023.475" transform="translate(-14.442 -38.18)" fill="#fff"/>
          <path id="Path_6936" data-name="Path 6936" d="M50.351,100.326l1.342,0,1.279,2.148,1.262-2.154,1.335,0-2.014,3.362,0,2.09-1.2,0,0-2.121Z" transform="translate(-19.543 -38.936)" fill="#fff"/>
          <path id="Path_6937" data-name="Path 6937" d="M65.749,102.765a.872.872,0,0,0,.335.229,1.133,1.133,0,0,0,.418.068,1.868,1.868,0,0,0,.457-.065,2.43,2.43,0,0,0,.324-.117,1.159,1.159,0,0,0,.3-.19.739.739,0,0,0,.2-.273.522.522,0,0,0,.015-.355.479.479,0,0,0-.231-.308,1.135,1.135,0,0,0-.417-.124,3.832,3.832,0,0,0-.543-.018c-.2.007-.4.01-.606.007a5.019,5.019,0,0,1-.623-.024,2.044,2.044,0,0,1-.576-.139,1.355,1.355,0,0,1-.472-.326,1.326,1.326,0,0,1-.3-.578,1.415,1.415,0,0,1-.019-.75,1.616,1.616,0,0,1,.316-.62,2.062,2.062,0,0,1,.553-.467,2.839,2.839,0,0,1,.68-.288,3.464,3.464,0,0,1,.816-.124,2.048,2.048,0,0,1,.754.114,1.563,1.563,0,0,1,.611.4,1.662,1.662,0,0,1,.384.729l-1.118.305a.952.952,0,0,0-.206-.363.679.679,0,0,0-.291-.182,1,1,0,0,0-.354-.038,1.989,1.989,0,0,0-.4.071,1.363,1.363,0,0,0-.272.105.791.791,0,0,0-.225.173.654.654,0,0,0-.138.235.513.513,0,0,0,0,.3.48.48,0,0,0,.127.234.54.54,0,0,0,.28.113,2.973,2.973,0,0,0,.523.031q.327,0,.855-.012.155-.01.437,0a2.015,2.015,0,0,1,.586.105,1.615,1.615,0,0,1,.568.331,1.329,1.329,0,0,1,.385.674,1.652,1.652,0,0,1,.043.708,1.511,1.511,0,0,1-.269.647,2.082,2.082,0,0,1-.59.536,3.336,3.336,0,0,1-.911.383,3.448,3.448,0,0,1-.873.124,2.209,2.209,0,0,1-.813-.138,1.707,1.707,0,0,1-.655-.447,1.769,1.769,0,0,1-.4-.791l1.118-.3a1,1,0,0,0,.218.423" transform="translate(-24.83 -38.155)" fill="#fff"/>
          <path id="Path_6938" data-name="Path 6938" d="M75.1,95.382l-.5-.874,3.872-2.22.5.873-1.416.813,2.209,3.852-1.039.6L76.519,94.57Z" transform="translate(-28.956 -35.821)" fill="#fff"/>
          <path id="Path_6939" data-name="Path 6939" d="M87.928,84.462l.7.72-2.054,2.013.817.833,1.886-1.847.65.664-1.885,1.848.934.953,2.1-2.056.7.72L88.831,91.2l-3.813-3.891Z" transform="translate(-32.999 -32.783)" fill="#fff"/>
          <path id="Path_6940" data-name="Path 6940" d="M94.022,75.5l3.9.683.007-.013-2.705-2.858.811-1.478,4.776,2.618-.539.984-3.385-1.856-.008.013,2.744,3.026-.444.809-3.994-.667-.008.013,3.352,1.837-.539.983-4.776-2.618Z" transform="translate(-36.18 -27.884)" fill="#fff"/>
          <path id="Path_6941" data-name="Path 6941" d="M4.64,44.564l.551-.551L2.985,41.807V40.552L4.64,42.207l.551-.551L2.632,39.1,0,41.729l.551.551,1.655-1.655v1.255L0,44.086l.551.551,1.655-1.656v1.255L0,46.442l.551.551,1.655-1.656v3.138h.779v-3.21L4.64,46.921l.551-.551L2.985,44.164V42.909Z" transform="translate(0 -15.175)" fill="#3d9336"/>
          <path id="Path_6942" data-name="Path 6942" d="M105.454,44.564l.551-.551L103.8,41.807V40.552l1.656,1.656.551-.551L103.445,39.1l-2.632,2.632.551.551,1.655-1.655v1.255l-2.206,2.206.551.551,1.655-1.656v1.255l-2.206,2.206.551.551,1.655-1.656v3.138h.779v-3.21l1.656,1.656.551-.551L103.8,44.164V42.909Z" transform="translate(-39.13 -15.175)" fill="#3d9336"/>
        </g>
      </g>
    </g>
  </g>
</svg>
