<svg xmlns="http://www.w3.org/2000/svg" xmlns:xlink="http://www.w3.org/1999/xlink" width="158" height="158" viewBox="0 0 158 158">
  <defs>
    <clipPath id="clip-path">
      <circle id="Ellipse_958" data-name="Ellipse 958" cx="79" cy="79" r="79" transform="translate(298 1408)" fill="#fff" stroke="#707070" stroke-width="1"/>
    </clipPath>
    <clipPath id="clip-path-2">
      <rect width="169.973" height="204" fill="none"/>
    </clipPath>
  </defs>
  <g id="Mask_Group_17" data-name="Mask Group 17" transform="translate(-298 -1408)" clip-path="url(#clip-path)">
    <g id="Repeat_Grid_1" data-name="Repeat Grid 1" transform="translate(292.155 1394.579)" clip-path="url(#clip-path-2)">
      <g transform="translate(-292.155 -1397.579)">
        <path id="Path_7002" data-name="Path 7002" d="M-16198.845-15118.921h169.973" transform="translate(16491 16517)" fill="none" stroke="#045d00" stroke-width="2"/>
      </g>
      <g transform="translate(-292.155 -1389.579)">
        <path id="Path_7002-2" data-name="Path 7002" d="M-16198.845-15118.921h169.973" transform="translate(16491 16517)" fill="none" stroke="#045d00" stroke-width="2"/>
      </g>
      <g transform="translate(-292.155 -1381.579)">
        <path id="Path_7002-3" data-name="Path 7002" d="M-16198.845-15118.921h169.973" transform="translate(16491 16517)" fill="none" stroke="#045d00" stroke-width="2"/>
      </g>
      <g transform="translate(-292.155 -1373.579)">
        <path id="Path_7002-4" data-name="Path 7002" d="M-16198.845-15118.921h169.973" transform="translate(16491 16517)" fill="none" stroke="#045d00" stroke-width="2"/>
      </g>
      <g transform="translate(-292.155 -1365.579)">
        <path id="Path_7002-5" data-name="Path 7002" d="M-16198.845-15118.921h169.973" transform="translate(16491 16517)" fill="none" stroke="#045d00" stroke-width="2"/>
      </g>
      <g transform="translate(-292.155 -1357.579)">
        <path id="Path_7002-6" data-name="Path 7002" d="M-16198.845-15118.921h169.973" transform="translate(16491 16517)" fill="none" stroke="#045d00" stroke-width="2"/>
      </g>
      <g transform="translate(-292.155 -1349.579)">
        <path id="Path_7002-7" data-name="Path 7002" d="M-16198.845-15118.921h169.973" transform="translate(16491 16517)" fill="none" stroke="#045d00" stroke-width="2"/>
      </g>
      <g transform="translate(-292.155 -1341.579)">
        <path id="Path_7002-8" data-name="Path 7002" d="M-16198.845-15118.921h169.973" transform="translate(16491 16517)" fill="none" stroke="#045d00" stroke-width="2"/>
      </g>
      <g transform="translate(-292.155 -1333.579)">
        <path id="Path_7002-9" data-name="Path 7002" d="M-16198.845-15118.921h169.973" transform="translate(16491 16517)" fill="none" stroke="#045d00" stroke-width="2"/>
      </g>
      <g transform="translate(-292.155 -1325.579)">
        <path id="Path_7002-10" data-name="Path 7002" d="M-16198.845-15118.921h169.973" transform="translate(16491 16517)" fill="none" stroke="#045d00" stroke-width="2"/>
      </g>
      <g transform="translate(-292.155 -1317.579)">
        <path id="Path_7002-11" data-name="Path 7002" d="M-16198.845-15118.921h169.973" transform="translate(16491 16517)" fill="none" stroke="#045d00" stroke-width="2"/>
      </g>
      <g transform="translate(-292.155 -1309.579)">
        <path id="Path_7002-12" data-name="Path 7002" d="M-16198.845-15118.921h169.973" transform="translate(16491 16517)" fill="none" stroke="#045d00" stroke-width="2"/>
      </g>
      <g transform="translate(-292.155 -1301.579)">
        <path id="Path_7002-13" data-name="Path 7002" d="M-16198.845-15118.921h169.973" transform="translate(16491 16517)" fill="none" stroke="#045d00" stroke-width="2"/>
      </g>
      <g transform="translate(-292.155 -1293.579)">
        <path id="Path_7002-14" data-name="Path 7002" d="M-16198.845-15118.921h169.973" transform="translate(16491 16517)" fill="none" stroke="#045d00" stroke-width="2"/>
      </g>
      <g transform="translate(-292.155 -1285.579)">
        <path id="Path_7002-15" data-name="Path 7002" d="M-16198.845-15118.921h169.973" transform="translate(16491 16517)" fill="none" stroke="#045d00" stroke-width="2"/>
      </g>
      <g transform="translate(-292.155 -1277.579)">
        <path id="Path_7002-16" data-name="Path 7002" d="M-16198.845-15118.921h169.973" transform="translate(16491 16517)" fill="none" stroke="#045d00" stroke-width="2"/>
      </g>
      <g transform="translate(-292.155 -1269.579)">
        <path id="Path_7002-17" data-name="Path 7002" d="M-16198.845-15118.921h169.973" transform="translate(16491 16517)" fill="none" stroke="#045d00" stroke-width="2"/>
      </g>
      <g transform="translate(-292.155 -1261.579)">
        <path id="Path_7002-18" data-name="Path 7002" d="M-16198.845-15118.921h169.973" transform="translate(16491 16517)" fill="none" stroke="#045d00" stroke-width="2"/>
      </g>
      <g transform="translate(-292.155 -1253.579)">
        <path id="Path_7002-19" data-name="Path 7002" d="M-16198.845-15118.921h169.973" transform="translate(16491 16517)" fill="none" stroke="#045d00" stroke-width="2"/>
      </g>
      <g transform="translate(-292.155 -1245.579)">
        <path id="Path_7002-20" data-name="Path 7002" d="M-16198.845-15118.921h169.973" transform="translate(16491 16517)" fill="none" stroke="#045d00" stroke-width="2"/>
      </g>
      <g transform="translate(-292.155 -1237.579)">
        <path id="Path_7002-21" data-name="Path 7002" d="M-16198.845-15118.921h169.973" transform="translate(16491 16517)" fill="none" stroke="#045d00" stroke-width="2"/>
      </g>
      <g transform="translate(-292.155 -1229.579)">
        <path id="Path_7002-22" data-name="Path 7002" d="M-16198.845-15118.921h169.973" transform="translate(16491 16517)" fill="none" stroke="#045d00" stroke-width="2"/>
      </g>
      <g transform="translate(-292.155 -1221.579)">
        <path id="Path_7002-23" data-name="Path 7002" d="M-16198.845-15118.921h169.973" transform="translate(16491 16517)" fill="none" stroke="#045d00" stroke-width="2"/>
      </g>
      <g transform="translate(-292.155 -1213.579)">
        <path id="Path_7002-24" data-name="Path 7002" d="M-16198.845-15118.921h169.973" transform="translate(16491 16517)" fill="none" stroke="#045d00" stroke-width="2"/>
      </g>
      <g transform="translate(-292.155 -1205.579)">
        <path id="Path_7002-25" data-name="Path 7002" d="M-16198.845-15118.921h169.973" transform="translate(16491 16517)" fill="none" stroke="#045d00" stroke-width="2"/>
      </g>
      <g transform="translate(-292.155 -1197.579)">
        <path id="Path_7002-26" data-name="Path 7002" d="M-16198.845-15118.921h169.973" transform="translate(16491 16517)" fill="none" stroke="#045d00" stroke-width="2"/>
      </g>
    </g>
  </g>
</svg>
